<?xml version="1.0" encoding="UTF-8" standalone="no"?>
<svg
   width="24"
   height="24"
   viewBox="0 0 24 24"
   fill="none"
   stroke="currentColor"
   stroke-width="2"
   stroke-linecap="round"
   stroke-linejoin="round"
   class="lucide lucide-test-tube-diagonal-icon lucide-test-tube-diagonal"
   version="1.1"
   id="svg3"
   sodipodi:docname="BattleCRM_logo.svg"
   inkscape:version="1.4.3 (0d15f75042, 2025-12-25)"
   xmlns:inkscape="http://www.inkscape.org/namespaces/inkscape"
   xmlns:sodipodi="http://sodipodi.sourceforge.net/DTD/sodipodi-0.dtd"
   xmlns:xlink="http://www.w3.org/1999/xlink"
   xmlns="http://www.w3.org/2000/svg"
   xmlns:svg="http://www.w3.org/2000/svg">
  <defs
     id="defs3">
    <linearGradient
       id="linearGradient5"
       inkscape:collect="always">
      <stop
         style="stop-color:#ff1b6b;stop-opacity:1;"
         offset="0"
         id="stop5" />
      <stop
         style="stop-color:#ff930f;stop-opacity:1;"
         offset="1"
         id="stop6" />
    </linearGradient>
    <linearGradient
       inkscape:collect="always"
       xlink:href="#linearGradient5"
       id="linearGradient6"
       x1="2.495671"
       y1="21.885115"
       x2="22.000299"
       y2="2.9180152"
       gradientUnits="userSpaceOnUse" />
  </defs>
  <sodipodi:namedview
     id="namedview3"
     pagecolor="#ffffff"
     bordercolor="#000000"
     borderopacity="0.25"
     inkscape:showpageshadow="2"
     inkscape:pageopacity="0.0"
     inkscape:pagecheckerboard="0"
     inkscape:deskcolor="#d1d1d1"
     inkscape:zoom="26.0451"
     inkscape:cx="16.509823"
     inkscape:cy="8.6772561"
     inkscape:window-width="1920"
     inkscape:window-height="1128"
     inkscape:window-x="0"
     inkscape:window-y="40"
     inkscape:window-maximized="1"
     inkscape:current-layer="svg3" />
  <path
     id="rect5"
     style="fill:url(#linearGradient6);stroke:none;stroke-width:1.00157"
     d="m 7.295038,2.9180152 c 3.404352,-0.409546 6.706317,-0.409546 9.905895,0 2.637333,0.3375786 4.496242,2.1578532 4.799367,4.799367 0.358353,3.1227888 0.358353,6.2455768 0,9.3683658 -0.303125,2.641514 -2.155018,4.522059 -4.799367,4.799367 -3.557931,0.373114 -6.859896,0.342618 -9.905895,0 -2.6421873,-0.297196 -4.5821569,-2.149404 -4.799367,-4.799367 -0.2559663,-3.122789 -0.2559663,-6.245577 0,-9.3683658 C 2.712881,5.06742 4.6552221,3.235587 7.295038,2.9180152 Z"
     sodipodi:nodetypes="sssssssss" />
  <g
     id="g6">
    <path
       d="m 18.67556,8.2908867 -2.628997,2.6289973 m -5.257995,5.257995 -2.6289974,2.628998 c -0.820606,0.811535 -2.1424927,0.808215 -2.9590126,-0.0074 -0.8185133,-0.819423 -0.8185133,-2.147006 0,-2.966429 l 2.6271433,-2.62717 M 13.081988,7.9515978 15.709131,5.324458"
       id="path1"
       style="stroke-width:1.48321;stroke:#ffffff;stroke-opacity:1"
       sodipodi:nodetypes="ccccccccc" />
    <path
       d="m 14.967525,4.5828508 4.449643,4.4496431"
       id="path2"
       style="stroke-width:1.48321;stroke:#ffffff;stroke-opacity:1" />
    <path
       d="M 10.435496,16.530951 H 4.8853411"
       id="path3"
       style="stroke-width:1.48321;stroke:#ffffff;stroke-opacity:1"
       sodipodi:nodetypes="cc" />
    <polyline
       points="14.5 17.5 3 6 3 3 6 3 17.5 14.5"
       id="polyline1"
       transform="matrix(0.74160718,0,0,0.74160718,3.8434168,3.5667773)"
       style="stroke:#ffffff;stroke-opacity:1" />
    <line
       x1="13.48431"
       x2="17.933952"
       y1="17.657314"
       y2="13.207671"
       id="line1"
       style="stroke-width:1.48321;stroke:#ffffff;stroke-opacity:1" />
    <line
       x1="15.709131"
       x2="18.67556"
       y1="15.432492"
       y2="18.398922"
       id="line2"
       style="stroke-width:1.48321;stroke:#ffffff;stroke-opacity:1" />
    <line
       x1="17.933952"
       x2="19.417168"
       y1="19.140528"
       y2="17.657314"
       id="line3"
       style="stroke-width:1.48321;stroke:#ffffff;stroke-opacity:1" />
  </g>
</svg>
